<?xml version="1.0" encoding="utf-8"?>
<!-- Generator: Adobe Illustrator 16.0.3, SVG Export Plug-In . SVG Version: 6.00 Build 0)  -->
<!DOCTYPE svg PUBLIC "-//W3C//DTD SVG 1.1//EN" "http://www.w3.org/Graphics/SVG/1.1/DTD/svg11.dtd">
<svg version="1.1" id="Capa_1" xmlns="http://www.w3.org/2000/svg" xmlns:xlink="http://www.w3.org/1999/xlink" x="0px" y="0px"
	 width="595.279px" height="841.89px" viewBox="0 0 595.279 841.89" enable-background="new 0 0 595.279 841.89"
	 xml:space="preserve">
<g>
	<path d="M78.46,369.453l12.793,32.373l-2.783-29.59l30.371,1.221l0.83,109.57l-18.018,1.221l-18.408-52.002l0.391,42.822
		l-23.193,0.391l-2.783-93.604l-8.398-2.002l-0.391-12.402L78.46,369.453z"/>
	<path d="M176.927,408.564c2.311,1.237,4.191,2.905,5.64,5.005c1.448,2.1,2.506,4.46,3.174,7.08c0.667,2.62,1.001,5.347,1.001,8.179
		c0,2.344-0.188,4.606-0.562,6.787c-0.375,2.182-0.887,4.184-1.538,6.006c-0.651,1.823-1.416,3.369-2.295,4.639
		c-2.051,3.061-4.248,5.697-6.592,7.91c-2.344,2.214-4.736,3.996-7.178,5.347s-4.858,2.344-7.251,2.979s-4.761,0.952-7.104,0.952
		c-2.767,0-5.396-0.432-7.886-1.294s-4.614-1.993-6.372-3.394c-2.897-2.408-5.16-5.656-6.787-9.741s-2.441-8.406-2.441-12.964
		c0-7.845,2.262-14.176,6.787-18.994c3.874-4.134,7.877-7.251,12.012-9.351c4.134-2.1,8.366-3.149,12.695-3.149
		c2.539,0,4.98,0.317,7.324,0.952S174.355,407.165,176.927,408.564z M174.046,416.767c-0.554,2.474-1.75,4.655-3.589,6.543
		c-1.839,1.889-3.638,2.832-5.396,2.832c-0.879,0-1.66-0.228-2.344-0.684c-0.977-0.781-1.465-2.148-1.465-4.102
		c0-1.497,0.496-2.979,1.489-4.443c0.993-1.465,2.563-2.62,4.712-3.467c-2.148,0-4.224,0.407-6.226,1.221
		c-2.002,0.814-3.719,1.864-5.151,3.149c-1.433,1.286-2.58,2.734-3.442,4.346c-0.863,1.611-1.294,3.231-1.294,4.858
		c0,3.027,1.399,5.437,4.199,7.227c2.604,1.66,5.078,2.49,7.422,2.49c2.311,0,4.362-0.773,6.152-2.319
		c1.79-1.546,3.157-3.532,4.102-5.957c0.944-2.425,1.416-4.825,1.416-7.202C174.632,419.632,174.437,418.134,174.046,416.767z"/>
	<path d="M234.622,366.23l20.41-9.18l1.221,66.113c0.26,1.693,0.391,3.613,0.391,5.762c0,1.889-0.065,3.288-0.195,4.199
		l0.586,29.932l-21.973,1.172v-2.979c-3.581,1.465-7.194,2.197-10.84,2.197c-2.8,0-5.428-0.424-7.886-1.27
		c-2.458-0.846-4.582-1.985-6.372-3.418c-2.897-2.408-5.16-5.656-6.787-9.741s-2.441-8.406-2.441-12.964
		c0-7.845,2.262-14.176,6.787-18.994c3.906-4.102,7.935-7.21,12.085-9.326c4.15-2.116,8.39-3.174,12.72-3.174
		c1.204,0,2.116,0.033,2.734,0.098L234.622,366.23z M235.062,413.642c-1.791,0.228-3.557,0.798-5.298,1.709
		c-1.742,0.912-3.231,1.986-4.468,3.223c-1.237,1.237-2.206,2.596-2.905,4.077c-0.7,1.481-1.05,2.938-1.05,4.37
		c0,2.963,1.399,5.371,4.199,7.227c2.474,1.66,4.98,2.49,7.52,2.49c0.488,0,1.155-0.064,2.002-0.195v-10.4
		c-0.879,0-1.66-0.228-2.344-0.684c-0.977-0.781-1.465-2.278-1.465-4.492C231.253,417.776,232.523,415.335,235.062,413.642z"/>
	<path d="M317.659,434.443l11.768,14.209c-0.944,2.734-3.182,5.241-6.714,7.52c-3.532,2.279-7.731,4.077-12.598,5.396
		s-9.726,1.978-14.575,1.978c-4.297,0-8.13-0.57-11.499-1.709s-5.965-2.864-7.788-5.176c-3.158-3.971-4.736-9.049-4.736-15.234
		c0-4.883,0.887-9.692,2.661-14.429s3.654-8.048,5.64-9.937c2.376-2.246,4.956-4.118,7.739-5.615
		c2.783-1.497,5.672-2.62,8.667-3.369c2.994-0.749,6.07-1.123,9.229-1.123c4.134,0,8.064,0.659,11.792,1.978s6.99,3.231,9.79,5.737
		l-26.807,31.982c2.376,0,4.631-0.496,6.763-1.489s4.093-2.409,5.884-4.248C314.664,439.074,316.259,436.917,317.659,434.443z
		 M304.134,423.066c-1.596-0.813-3.223-1.221-4.883-1.221c-1.758,0-3.459,0.358-5.103,1.074c-1.644,0.717-2.808,1.563-3.491,2.539
		c-2.019,2.604-3.027,5.469-3.027,8.594c0,1.14,0.114,2.23,0.342,3.271c0.228,1.042,0.618,2.475,1.172,4.297L304.134,423.066z"/>
	<path d="M338.636,383.857c3.939-1.302,7.642-2.506,11.108-3.613c3.467-1.106,7.12-2.156,10.962-3.149
		c3.841-0.993,7.52-1.782,11.035-2.368c2.701-0.456,5.469-0.684,8.301-0.684c4.72,0,7.813,0.13,9.277,0.391
		c2.213,0.423,4.305,1.107,6.274,2.051c1.97,0.944,3.728,2.206,5.273,3.784c1.546,1.579,2.808,3.442,3.784,5.591
		c0.391,0.879,0.586,1.807,0.586,2.783c0,3.646-1.994,8.138-5.981,13.477c-3.987,5.339-7.991,9.994-12.012,13.965
		c-4.021,3.972-7.023,6.82-9.009,8.545l8.789,30.811l-12.793,9.229l-22.412-64.014c-0.065,0-0.375,0.31-0.928,0.928
		c-0.554,0.619-1.277,1.424-2.173,2.417c-0.896,0.993-1.457,1.604-1.685,1.831c-0.098,0-0.415-0.7-0.952-2.1
		c-0.537-1.399-1.253-3.345-2.148-5.835s-1.904-5.257-3.027-8.301C339.783,386.551,339.027,384.638,338.636,383.857z
		 M370.228,397.431l4.004,14.404c2.018-2.051,4.524-4.85,7.52-8.398c2.994-3.548,4.492-6.12,4.492-7.715
		c0-0.618-0.261-0.977-0.781-1.074c-1.465-0.325-2.914-0.488-4.346-0.488C376.82,394.16,373.19,395.25,370.228,397.431z"/>
	<path d="M461.907,408.564c2.311,1.237,4.191,2.905,5.64,5.005s2.507,4.46,3.174,7.08s1.001,5.347,1.001,8.179
		c0,2.344-0.188,4.606-0.562,6.787c-0.374,2.182-0.888,4.184-1.538,6.006c-0.651,1.823-1.416,3.369-2.295,4.639
		c-2.051,3.061-4.248,5.697-6.592,7.91c-2.344,2.214-4.736,3.996-7.178,5.347s-4.858,2.344-7.251,2.979s-4.761,0.952-7.104,0.952
		c-2.768,0-5.396-0.432-7.886-1.294s-4.614-1.993-6.372-3.394c-2.897-2.408-5.16-5.656-6.787-9.741s-2.441-8.406-2.441-12.964
		c0-7.845,2.262-14.176,6.787-18.994c3.873-4.134,7.877-7.251,12.012-9.351c4.134-2.1,8.365-3.149,12.695-3.149
		c2.539,0,4.98,0.317,7.324,0.952S459.335,407.165,461.907,408.564z M459.027,416.767c-0.554,2.474-1.75,4.655-3.589,6.543
		c-1.839,1.889-3.638,2.832-5.396,2.832c-0.879,0-1.66-0.228-2.344-0.684c-0.977-0.781-1.465-2.148-1.465-4.102
		c0-1.497,0.496-2.979,1.489-4.443s2.563-2.62,4.712-3.467c-2.148,0-4.224,0.407-6.226,1.221c-2.002,0.814-3.72,1.864-5.151,3.149
		c-1.433,1.286-2.58,2.734-3.442,4.346s-1.294,3.231-1.294,4.858c0,3.027,1.399,5.437,4.199,7.227c2.604,1.66,5.078,2.49,7.422,2.49
		c2.311,0,4.361-0.773,6.152-2.319c1.79-1.546,3.157-3.532,4.102-5.957c0.943-2.425,1.416-4.825,1.416-7.202
		C459.613,419.632,459.417,418.134,459.027,416.767z"/>
	<path d="M508.812,463.349l2.393,39.307l-21.973,1.172l-3.32-63.379v-0.488c-0.13-1.627-0.195-2.832-0.195-3.613l-0.879-17.285
		l-7.227,1.563l2.393-11.963l24.805-10.4l0.635,8.984c3.873-1.855,7.796-2.783,11.768-2.783c4.817,0,9.717,1.367,14.697,4.102
		c2.311,1.237,4.191,2.905,5.64,5.005s2.507,4.46,3.174,7.08s1.001,5.347,1.001,8.179c0,2.344-0.188,4.606-0.562,6.787
		c-0.374,2.182-0.888,4.184-1.538,6.006c-0.651,1.823-1.416,3.369-2.295,4.639c-2.734,4.102-5.713,7.422-8.936,9.961
		s-6.462,4.362-9.717,5.469C515.419,462.795,512.132,463.349,508.812,463.349z M506.517,425.263c0,1.823,0.415,3.605,1.245,5.347
		s1.749,2.954,2.759,3.638c2.604,1.66,5.078,2.49,7.422,2.49c2.311,0,4.361-0.773,6.152-2.319c1.79-1.546,3.157-3.532,4.102-5.957
		c0.943-2.425,1.416-4.825,1.416-7.202c0-1.627-0.195-3.125-0.586-4.492c-0.554,2.474-1.75,4.655-3.589,6.543
		c-1.839,1.889-3.638,2.832-5.396,2.832c-0.879,0-1.66-0.228-2.344-0.684c-0.977-0.781-1.465-2.148-1.465-4.102
		c0-1.497,0.496-2.979,1.489-4.443s2.563-2.62,4.712-3.467c-2.637,0-5.078,0.562-7.324,1.685s-4.143,2.612-5.688,4.468
		S506.907,423.343,506.517,425.263z"/>
</g>
</svg>
